<svg width="17" height="17" viewBox="0 0 17 17" fill="none" xmlns="http://www.w3.org/2000/svg">
<path d="M0.586445 9.44638C0.40157 9.66172 0.311611 9.93584 0.33357 10.2192C0.355528 10.5025 0.485861 10.7603 0.701903 10.9445L5.94569 15.4396C6.14049 15.6061 6.38203 15.6953 6.63561 15.6953C6.66678 15.6953 6.69865 15.6939 6.73053 15.6911C7.0174 15.6656 7.27594 15.5288 7.45869 15.3071L16.4276 4.39101C16.6075 4.17142 16.6918 3.89517 16.6642 3.61255C16.6359 3.32992 16.5006 3.07492 16.281 2.8943L14.6391 1.54563C14.1864 1.17447 13.5164 1.23963 13.1438 1.69226L6.24107 10.0938L3.46724 7.71734C3.0224 7.33768 2.3509 7.38797 1.96911 7.8328L0.586445 9.44638Z" fill="#E1B26C"/>
</svg>
