<svg width="15" height="15" viewBox="0 0 15 15" fill="none" xmlns="http://www.w3.org/2000/svg">
<path d="M14.7602 6.91716L9.3432 1.50001C9.18857 1.34538 8.98248 1.2605 8.76272 1.2605C8.54272 1.2605 8.33675 1.3455 8.18212 1.50001L7.69029 1.99196C7.53578 2.14634 7.45066 2.35256 7.45066 2.57244C7.45066 2.79219 7.53578 3.00536 7.69029 3.15975L10.8505 6.32692H0.810358C0.35768 6.32692 0 6.68131 0 7.13411V7.82959C0 8.28239 0.35768 8.67251 0.810358 8.67251H10.8864L7.69042 11.8574C7.5359 12.012 7.45078 12.2126 7.45078 12.4325C7.45078 12.6521 7.5359 12.8556 7.69042 13.0102L8.18224 13.5005C8.33687 13.6552 8.54285 13.7394 8.76284 13.7394C8.9826 13.7394 9.18869 13.6541 9.34333 13.4994L14.7603 8.08239C14.9153 7.92727 15.0006 7.7202 15 7.50008C15.0005 7.27923 14.9153 7.07204 14.7602 6.91716Z" fill="#3C4852"/>
</svg>
