<svg width="17" height="17" viewBox="0 0 17 17" fill="none" xmlns="http://www.w3.org/2000/svg">
<g clip-path="url(#clip0_37_6147)">
<path d="M6.19788 12.4751V15.7603C6.19788 15.9898 6.34521 16.1931 6.56337 16.2654C6.61792 16.2831 6.67387 16.2916 6.72912 16.2916C6.89487 16.2916 7.05495 16.2137 7.15695 16.0748L9.07865 13.4597L6.19788 12.4751Z" fill="#3C4852"/>
<path d="M16.7764 0.0977887C16.6135 -0.0176697 16.3996 -0.033253 16.2225 0.0595387L0.285002 8.38245C0.0965851 8.48091 -0.0146235 8.68208 0.000959893 8.89387C0.0172516 9.10637 0.15821 9.28771 0.358669 9.35641L4.7893 10.8708L14.225 2.80291L6.92351 11.5997L14.349 14.1377C14.4042 14.1561 14.4623 14.166 14.5204 14.166C14.6167 14.166 14.7124 14.1398 14.7967 14.0888C14.9312 14.0066 15.0226 13.8685 15.046 13.7134L16.9939 0.609205C17.023 0.410872 16.9394 0.213955 16.7764 0.0977887Z" fill="#3C4852"/>
</g>
<defs>
<clipPath id="clip0_37_6147">
<rect width="17" height="17" fill="white"/>
</clipPath>
</defs>
</svg>
